<svg xmlns="http://www.w3.org/2000/svg" width="512" height="512" viewBox="0 0 512 512" version="1.1"><path d="" stroke="none" fill="#d0cccc" fill-rule="evenodd"/><path d="M 183.500 25.216 C 181.075 26.616, 179.942 27.743, 177.709 30.973 C 176.192 33.167, 176 36.733, 176 62.650 L 176 91.855 178.635 93.927 C 181.247 95.982, 181.906 96, 256.461 96 L 331.651 96 333.826 93.686 C 335.952 91.422, 336 90.749, 336 63.153 C 336 31.697, 335.683 29.821, 329.747 26.152 C 326.267 24.002, 326.206 24, 255.882 24.030 C 204.541 24.053, 184.959 24.373, 183.500 25.216 M 192 60 L 192 80 200 80 L 208 80 208 70.174 C 208 54.735, 203.694 56, 256.242 56 L 299.855 56 301.927 58.635 C 303.689 60.874, 304 62.675, 304 70.635 L 304 80 312 80 L 320 80 320 60 L 320 40 256 40 L 192 40 192 60 M 224 76 L 224 80 256 80 L 288 80 288 76 L 288 72 256 72 L 224 72 224 76 M 25.500 96.927 C 22.743 98.073, 17.949 103.018, 16.882 105.815 C 16.397 107.088, 16 136.868, 16 171.993 L 16 235.855 18.635 237.927 C 21.223 239.963, 22.186 240, 72.461 240 L 123.651 240 125.826 237.686 C 127.969 235.404, 128 234.895, 128 201.686 L 128 168 158.347 168 C 186.777 168, 188.833 168.121, 190.895 169.909 C 192.106 170.959, 194.949 173.322, 197.213 175.159 C 199.477 176.997, 201.818 178.959, 202.415 179.520 C 204.002 181.011, 220.641 194.854, 227.820 200.657 L 230.140 202.532 228.070 204.919 C 226.932 206.232, 226 207.575, 226 207.903 C 226 208.231, 221.387 208.500, 215.750 208.500 C 206.320 208.500, 204.980 208.750, 199 211.628 C 191.254 215.356, 185.070 221.135, 180.877 228.563 C 179.190 231.553, 177.112 234, 176.259 234 C 172.927 234, 159.888 241.249, 154.712 245.980 C 142.899 256.777, 136.915 269.644, 136.217 285.750 L 135.773 296 126.228 296 L 116.682 296 112.341 300.728 C 109.953 303.329, 108 305.735, 108 306.075 C 108 306.416, 107.213 307.621, 106.250 308.754 C 105.287 309.887, 103.825 311.797, 103 313 C 102.175 314.203, 100.825 316.003, 100 317 C 99.175 317.997, 97.825 319.811, 97 321.029 C 93.593 326.061, 93.212 326.163, 88.699 323.252 C 81.538 318.633, 77.691 319.337, 63 327.952 C 56.125 331.984, 48.475 336.396, 46 337.757 C 43.525 339.118, 39.475 341.474, 37 342.991 C 34.525 344.509, 29.245 347.622, 25.267 349.909 C 17.558 354.342, 16 356.167, 16 360.760 C 16 363.932, 19.548 368, 22.314 368 C 23.862 368, 24 370.776, 24 401.927 L 24 435.855 26.635 437.927 C 29.223 439.963, 30.186 440, 80.461 440 L 131.651 440 133.826 437.686 C 135.969 435.404, 136 434.895, 136 401.686 C 136 369.739, 136.094 368, 137.826 368 C 142.886 368, 146.143 358.237, 142.250 354.736 C 141.287 353.870, 133.300 349.028, 124.500 343.976 C 115.700 338.924, 108.329 334.628, 108.119 334.430 C 107.909 334.233, 111.444 329.105, 115.973 323.036 L 124.209 312 132.510 312 L 140.810 312 143.590 316.750 C 153.199 333.168, 172.285 344, 191.605 344 L 200 344 200.022 407.750 C 200.043 467.437, 200.161 471.758, 201.880 475.541 C 202.889 477.764, 205.184 480.818, 206.978 482.328 C 213.684 487.971, 213.937 488, 256.154 488 C 298.241 488, 298.311 487.992, 304.892 482.443 C 312.208 476.275, 311.954 478.959, 311.978 407.750 L 312 344 319.250 343.983 C 344.054 343.923, 364.329 329.967, 373.121 306.899 C 375.759 299.979, 376.760 284.045, 375.052 276.156 C 371.614 260.272, 359.469 244.771, 345 237.798 C 340.875 235.810, 335.790 233.863, 333.701 233.472 C 328.936 232.578, 327.425 231.079, 326.542 226.371 C 326.157 224.320, 324.949 220.743, 323.858 218.421 L 321.874 214.200 331.673 191.100 L 341.473 168 354.677 168 L 367.881 168 368.191 187.250 C 368.537 208.782, 368.834 209.780, 376.136 213.932 C 379.260 215.709, 381.479 216, 391.886 216 C 400.928 216, 403.992 216.317, 403.967 217.250 C 403.949 217.938, 403.064 220.975, 402 224 C 399.252 231.811, 399.416 235.395, 402.635 237.927 C 405.154 239.909, 406.465 240, 432.562 240 L 459.855 240 461.927 237.365 C 464.522 234.066, 464.539 230.879, 462 223.500 C 460.900 220.303, 460 217.307, 460 216.843 C 460 216.380, 465.558 216, 472.352 216 C 483.544 216, 485.021 215.786, 488.078 213.726 C 489.934 212.476, 492.476 209.934, 493.726 208.078 C 495.990 204.718, 496 204.551, 495.958 168.102 C 495.912 127.767, 495.922 127.840, 489.524 122.830 L 486.549 120.500 432.024 120.500 C 379.574 120.500, 377.403 120.574, 374.943 122.443 C 369.238 126.780, 368.524 128.709, 368.164 140.750 L 367.828 152 350.088 152 C 332.955 152, 332.280 152.077, 330.334 154.250 C 329.226 155.488, 324.392 165.718, 319.593 176.984 C 314.793 188.250, 310.714 197.620, 310.527 197.806 C 310.341 197.992, 307.559 196.367, 304.344 194.194 C 296.290 188.749, 292.939 187.167, 286.259 185.652 L 280.500 184.346 280.211 174.459 C 280.004 167.380, 279.495 164.099, 278.416 162.907 C 277.587 161.992, 266.816 154.550, 254.479 146.371 L 232.048 131.500 232.024 121.750 L 232 112 224 112 L 216 112 216 125.911 L 216 139.822 218.810 142.161 C 220.355 143.447, 231.144 150.800, 242.786 158.500 L 263.953 172.500 263.976 178.211 L 264 183.923 259.750 184.973 C 257.413 185.550, 253.250 186.959, 250.500 188.104 C 243.001 191.226, 242.206 191.349, 240.511 189.654 C 239.653 188.796, 236.825 186.385, 234.227 184.297 C 231.628 182.208, 229.014 180.050, 228.416 179.500 C 227.818 178.950, 225.477 176.997, 223.213 175.159 C 220.949 173.322, 218.153 171, 217 170 C 215.847 169, 213.058 166.678, 210.803 164.841 C 208.547 163.003, 205.307 160.229, 203.601 158.675 C 195.934 151.692, 197.936 152.008, 161.250 152.004 L 128 152 127.958 129.750 C 127.912 105.265, 127.556 103.554, 121.525 98.830 L 118.551 96.500 73.025 96.298 C 47.986 96.187, 26.600 96.470, 25.500 96.927 M 32 152 L 32 192 72 192 L 112 192 112 152 L 112 112 72 112 L 32 112 32 152 M 59 122.569 C 52.196 125.722, 46.650 130.952, 43.168 137.500 C 40.829 141.899, 40.509 143.641, 40.505 152 C 40.500 160.646, 40.764 161.977, 43.438 166.804 C 46.775 172.827, 51.933 177.858, 58.205 181.207 C 61.837 183.146, 63.966 183.494, 72 183.463 C 80.263 183.431, 82.156 183.085, 86.540 180.803 C 106.447 170.440, 110.021 143.335, 93.489 128.097 C 84.678 119.975, 69.756 117.583, 59 122.569 M 66.481 137.347 C 62.508 139.139, 57.359 145.091, 56.535 148.842 C 54.919 156.199, 60.658 165.023, 68.418 167.113 C 81.761 170.705, 92.699 154.941, 84.831 143.459 C 80.697 137.426, 72.419 134.669, 66.481 137.347 M 384 156 L 384 176 432 176 L 480 176 480 156 L 480 136 432 136 L 384 136 384 156 M 384 196 L 384 200 432 200 L 480 200 480 196 L 480 192 432 192 L 384 192 384 196 M 261.150 201.719 C 258.346 202.252, 250.450 206.548, 246.092 209.912 C 244.373 211.239, 240.945 215.394, 238.473 219.146 C 233.185 227.173, 231.364 227.927, 222.964 225.570 C 209.893 221.903, 198.052 228.098, 193.506 240.982 C 191.395 246.967, 190.590 247.708, 184.861 248.936 C 162.635 253.703, 148.900 274.259, 153.428 295.978 C 155.815 307.425, 162.417 316.538, 172.681 322.553 C 177.590 325.430, 188.092 327.956, 195.250 327.983 L 200 328 200.022 320.250 C 200.055 308.523, 204.257 301.296, 213.218 297.553 C 218.750 295.242, 293.239 295.237, 298.768 297.548 C 307.408 301.158, 312 309.111, 312 320.467 L 312 328 315.750 327.992 C 317.813 327.988, 322.325 327.526, 325.778 326.966 C 348.823 323.226, 363.670 301.488, 358.452 279.126 C 354.515 262.255, 340.771 250.440, 322.820 248.495 C 314.416 247.585, 312.728 245.771, 311.232 236.045 C 310.517 231.401, 308.770 225.359, 307.232 222.212 C 302.703 212.949, 293.022 204.874, 283.002 202 L 280 201.140 280 216.920 L 280 232.701 284.896 235.744 C 300.597 245.505, 299.365 269.158, 282.722 277.451 C 266.537 285.517, 247.954 274.184, 248.022 256.290 C 248.058 246.745, 252.590 238.810, 260.250 234.882 L 264 232.959 264 216.980 C 264 208.191, 263.887 201.061, 263.750 201.136 C 263.613 201.211, 262.443 201.473, 261.150 201.719 M 32 216 L 32 224 72 224 L 112 224 112 216 L 112 208 72 208 L 32 208 32 216 M 421.098 219.149 C 420.494 220.881, 420 222.681, 420 223.149 C 420 223.617, 425.400 224, 432 224 C 438.600 224, 444 223.617, 444 223.149 C 444 222.681, 443.506 220.881, 442.902 219.149 L 441.804 216 432 216 L 422.196 216 421.098 219.149 M 267.474 250.269 C 262.084 254.905, 265.004 263.333, 272 263.333 C 278.286 263.333, 281.808 255.318, 277.417 251.007 C 274.149 247.800, 270.646 247.540, 267.474 250.269 M 184 272 L 184 280 192 280 L 200 280 200 272 L 200 264 192 264 L 184 264 184 272 M 216 272 L 216 280 224 280 L 232 280 232 272 L 232 264 224 264 L 216 264 216 272 M 312 272 L 312 280 320 280 L 328 280 328 272 L 328 264 320 264 L 312 264 312 272 M 408.508 297.135 C 403.125 298.395, 393.266 303.389, 389.117 306.958 L 385.733 309.869 391.415 315.826 L 397.097 321.783 402.995 317.844 C 413.871 310.582, 427.684 310.642, 437.837 317.997 C 440.117 319.649, 442.339 321, 442.776 321 C 443.212 321, 446.028 318.491, 449.034 315.425 L 454.500 309.849 451 306.847 C 446.182 302.714, 437.542 298.472, 431.201 297.125 C 424.985 295.805, 414.170 295.810, 408.508 297.135 M 218.455 314.455 C 216.439 316.470, 216 317.900, 216 322.455 L 216 328 256 328 L 296 328 296 323.047 C 296 317.022, 294.468 313.361, 291.628 312.598 C 290.458 312.284, 274.067 312.021, 255.205 312.014 L 220.909 312 218.455 314.455 M 412.764 320.996 C 409.479 321.985, 403 325.880, 403 326.866 C 403 327.252, 405.435 329.973, 408.412 332.913 C 413.565 338.002, 413.971 338.206, 416.912 337.181 C 419.120 336.411, 420.884 336.412, 423.105 337.186 C 426.078 338.223, 426.448 338.030, 431.831 332.647 C 438.124 326.354, 438.091 326.082, 430.515 322.097 C 426.328 319.894, 418.115 319.384, 412.764 320.996 M 66.500 345.071 L 54.500 351.998 79.450 351.999 C 93.173 351.999, 103.973 351.620, 103.450 351.155 C 101.468 349.393, 80.749 338.003, 79.651 338.072 C 79.018 338.112, 73.100 341.261, 66.500 345.071 M 216 392 L 216 440 256 440 L 296 440 296 392 L 296 344 256 344 L 216 344 216 392 M 378.306 354.250 C 377.183 355.488, 372.605 361.999, 368.132 368.721 L 360 380.941 360 404.398 L 360 427.855 362.635 429.927 C 364.617 431.487, 366.716 432, 371.109 432 C 376.464 432, 377.068 432.228, 378.388 434.750 C 387.233 451.653, 412.652 452.363, 421.030 435.942 C 422.962 432.154, 423.234 432, 427.995 432 C 432.383 432, 433.113 432.314, 434.388 434.750 C 443.233 451.653, 468.652 452.363, 477.030 435.942 L 479.041 432 485.346 432 C 490.644 432, 491.999 431.630, 493.826 429.686 C 495.905 427.473, 496 426.516, 496 407.860 C 496 388.903, 495.936 388.290, 493.750 386.289 C 491.520 384.248, 489.828 383.533, 485 382.591 C 482.659 382.134, 480.898 381.725, 476 380.500 C 471.433 379.358, 470.350 379.064, 467.232 378.119 C 463.740 377.061, 463.461 377, 462.153 377 C 461.686 377, 458.256 372.387, 454.529 366.750 C 443.577 350.183, 448.815 352, 412 352 C 380.448 352, 380.342 352.007, 378.306 354.250 M 242 361.901 C 235.055 364.166, 229.456 367.129, 224.993 370.900 L 221.500 373.852 227.371 379.827 L 233.242 385.802 237.661 382.429 C 242.870 378.453, 248.424 376.725, 256 376.725 C 263.576 376.725, 269.130 378.453, 274.339 382.429 L 278.758 385.802 284.545 379.954 C 289.577 374.869, 290.158 373.896, 288.998 372.497 C 286.749 369.787, 274.810 363.246, 269.068 361.578 C 261.804 359.468, 248.994 359.620, 242 361.901 M 40 396 L 40 424 48 424 L 56 424 56 406.174 C 56 382.327, 54.171 384, 80.242 384 L 99.855 384 101.927 386.635 C 103.843 389.071, 104 390.581, 104 406.635 L 104 424 112 424 L 120 424 120 396 L 120 368 80 368 L 40 368 40 396 M 386.250 371.498 C 385.012 373.409, 384 375.203, 384 375.486 C 384 375.769, 387.600 376, 392 376 L 400 376 400 372 L 400 368 394.250 368.012 C 388.791 368.024, 388.386 368.200, 386.250 371.498 M 416 372 L 416 376 428 376 C 434.600 376, 440 375.769, 440 375.486 C 440 375.203, 438.988 373.409, 437.750 371.498 L 435.500 368.025 425.750 368.012 L 416 368 416 372 M 246.500 385.913 C 244.300 386.941, 241.600 388.483, 240.500 389.341 C 238.553 390.858, 238.651 391.051, 244.167 396.605 C 249.717 402.195, 249.897 402.285, 252.917 401.035 C 255.418 399.998, 256.582 399.998, 259.083 401.035 C 262.103 402.285, 262.283 402.195, 267.833 396.606 L 273.500 390.900 270.570 388.700 C 263.969 383.744, 253.689 382.554, 246.500 385.913 M 376 404.059 C 376 411.844, 376.354 415.899, 377 415.500 C 377.550 415.160, 378 414.336, 378 413.669 C 378 411.419, 384.163 404.958, 388.347 402.821 C 390.898 401.518, 395.007 400.553, 399 400.318 C 407.987 399.790, 414.983 403.276, 419.940 410.750 C 423.339 415.874, 423.538 416, 428.236 416 C 432.343 416, 433.178 415.661, 433.926 413.694 C 438.088 402.747, 453.391 397.085, 465.516 402.007 C 470.812 404.156, 473.592 406.817, 478.716 414.643 C 479.712 416.163, 479.893 414.879, 479.716 407.560 L 479.500 398.620 466.500 395.337 L 453.500 392.053 414.750 392.027 L 376 392 376 404.059 M 72 412 L 72 424 80 424 L 88 424 88 412 L 88 400 80 400 L 72 400 72 412 M 252 408.294 C 246.113 411.272, 245.744 419.621, 251.345 423.112 C 259.170 427.988, 267.735 420.189, 263.516 412.030 C 261.143 407.443, 256.598 405.968, 252 408.294 M 397.465 416.961 C 389.848 420.014, 391.844 431.333, 400 431.333 C 404.052 431.333, 407.333 428.052, 407.333 424 C 407.333 418.989, 401.963 415.158, 397.465 416.961 M 453.465 416.961 C 445.848 420.014, 447.844 431.333, 456 431.333 C 460.052 431.333, 463.333 428.052, 463.333 424 C 463.333 418.989, 457.963 415.158, 453.465 416.961 M 216.181 462.497 C 216.408 466.071, 217.158 469.558, 217.846 470.247 C 218.792 471.194, 227.974 471.570, 255.449 471.785 L 291.799 472.071 293.900 469.400 C 295.441 467.441, 296 465.302, 296 461.365 L 296 456 255.884 456 L 215.767 456 216.181 462.497" stroke="none" fill="#cccccc" fill-rule="evenodd"/></svg>